<svg xmlns="http://www.w3.org/2000/svg" width="509.655" height="114.892" viewBox="0 0 509.655 114.892"><path fill="#8C8B90" d="M188.933 67.881v-34.208c0-4.724-3.83-8.55-8.556-8.55h-27.017l-.059-.116-13.114-24.218c-.208-.466-.677-.789-1.225-.789-.735 0-1.336.601-1.336 1.336v66.545c0 4.726 3.825 8.552 8.547 8.552h34.204c4.726 0 8.556-3.826 8.556-8.552m-41.941 1.489c-1.257 0-2.278-1.014-2.278-2.277v-40.766000000000005l3.225 5.988h31.552c1.261 0 2.279 1.021 2.279 2.281v32.495c0 1.264-1.019 2.277-2.279 2.277h-32.499zM201.04 76.492h34.417l-3.838-7.128h-29.723c-1.262 0-2.285-1.021-2.285-2.279v-32.497c0-1.259 1.023-2.278 2.285-2.278h32.493c1.266 0 2.281 1.02 2.281 2.278v35.943l-.008.398c0 3.071 2.499 5.563 5.571 5.563h.396l4.285-.006h.067c.467 0 .841-.376.841-.84 0-.268-.127-.509-.325-.66l-.06-.047c-2.205-1.543-3.64-4.106-3.64-6.998v-34.207c0-4.725-3.828-8.551-8.554-8.551h-34.203c-4.726 0-8.556 3.826-8.556 8.551v34.207c0 4.721 3.83 8.551 8.556 8.551"/><path fill="#8C8B90" d="M290.908 32.308c1.266 0 2.279 1.021 2.279 2.278v39.272l-.004.133c0 1.381 1.124 2.499 2.505 2.499h3.458l4.284-.004h.071c.462 0 .84-.376.84-.84 0-.27-.131-.509-.328-.66l-.063-.047c-2.197-1.548-3.643-4.106-3.643-7v-34.207c0-4.723-3.819-8.551-8.541-8.551h-32.342l-3.219 5.872-.03-5.88h-7.168v41.595l-.022-.067v9.73h7.137l.013-9.816v-34.316l2.751.009h32.022zM347.441 69.347h-38.068l-3.838 7.126h42.762c4.725 0 8.553-3.829 8.553-8.555v-6.295l-.006-.106v-5.177c0-4.723-3.828-8.553-8.549-8.553h-12.075l-10.043-.009h-11.223c-1.263 0-2.278-1.02-2.278-2.28v-4.423l-.008-2.079v-4.429c0-1.259 1.018-2.278 2.276-2.278h21.275l.875.006h15.898l3.838-7.125h-19.305l-1.307-.004h-22.132c-4.719 0-8.553 3.824-8.553 8.547v5.283l.012 2.181v5.18c0 4.721 3.832 8.551 8.549 8.551h12.081l10.043.008h11.221c1.259 0 2.276 1.019 2.276 2.281v4.427l.009.098v5.345c.003 1.26-1.022 2.28-2.283 2.28M370.501 76.535h43.308l-3.84-7.124h-38.61c-1.259 0-2.281-1.021-2.281-2.277v-12.193h30.77v-7.146l-30.77-.013v-13.145c0-1.259 1.022-2.284 2.281-2.284h41.691v-7.135l-13.397.008h-29.152c-4.721 0-8.551 3.832-8.551 8.556v34.206c0 4.72 3.83 8.547 8.551 8.547M420.494 76.625h3.453l4.282-.008h.071c.466 0 .844-.376.844-.842 0-.271-.13-.509-.326-.66l-.063-.047c-2.201-1.543-3.64-4.104-3.64-6.998v-3.53l.006-.071v-9.569h30.769v-7.137l-30.769-.009v-13.153c0-1.259 1.02-2.281 2.285-2.281h41.686v-7.137l-13.394.013h-29.154c-4.725 0-8.549 3.825-8.549 8.551v31.439l-.008 1.592v7.337c.001 1.385 1.125 2.51 2.507 2.51"/><path fill="#8C8B90" d="M479.136 76.602l4.277-.004.071-.004c.467 0 .841-.374.841-.838 0-.268-.127-.505-.327-.664l-.054-.041c-2.209-1.55-3.642-4.106-3.642-7v-3.131l.008-3.901v-28.589l.037-7.133h-7.17v48.671l-.006.126c0 1.386 1.122 2.508 2.51 2.508h3.455zM480.327 21.798v-8.044h-7.178l.033 8.044z"/><path fill="#AC172B" d="M37.033 72.147l.004.004c0 3.149 2.551 5.7 5.7 5.7l28.488-.011c3.151 0 5.702-2.552 5.702-5.699v-28.535c-.002-3.144-2.557-5.69-5.702-5.69h-23.221000000000004c-.971.021-1.408-.858-1.408-.858l-8.226-16.474c-.127-.208-.359-.363-.621-.363-.396 0-.716.322-.716.715v51.211zM114.032 15.168c0-7.873-6.376-14.253-14.245-14.253-7.48 0-13.611 5.755-14.208 13.084l-.011-9.998c-.038-1.729-1.412-3.125-3.145-3.141h-40.832l-.039-.002c-.786 0-1.433.634-1.433 1.423 0 .227.054.439.151.629l12.296 24.611c.511 1.079 1.608 1.831 2.886 1.84l20.09.008c5.308 0 9.655 4.148 9.959 9.385l.015.317v.271l-.022 37.063c0 5.388-4.27 9.779-9.612 9.968l-.128.004-37.274-.043c-5.512 0-9.978-4.466-9.978-9.974l-.063-43.832c0-1.772-1.433-3.209-3.207-3.209l-9.83.049c7.333-.585 13.104-6.724 13.104-14.204 0-7.873-6.385-14.257-14.255-14.257-7.87 0-14.251 6.385-14.251 14.258 0 7.431 5.688 13.534 12.954 14.191l-9.745.013c-1.774 0-3.207 1.438-3.207 3.205l.005 50.6c0 1.77 1.433 3.213 3.206 3.213l11.039.004c-7.871-.001-14.252 6.38-14.252 14.252 0 7.868 6.381 14.249 14.252 14.249 7.87 0 14.255-6.381 14.255-14.249l.004 11.043c0 1.773 1.437 3.206 3.205 3.206h50.6c1.766 0 3.2-1.435 3.2-3.206v-.057999999999999996l.021-9.579c.726 7.186 6.796 12.792 14.176 12.792 7.872 0 14.257-6.379 14.257-14.251 0-7.505-5.806-13.652-13.166-14.213l10.027.009c1.771 0 3.202-1.438 3.202-3.209v-50.648c-.021-1.664-1.361-3.037-2.97-3.158h-10.075c7.31-.61 13.044-6.739 13.044-14.203m-85.55 84.102c-.617-6.798-5.988-12.214-12.76-12.893h9.563c1.729 0 3.139 1.369 3.204 3.082l-.007 9.811zm57.086-82.797c.611 6.792 5.984 12.209 12.756 12.888h-9.554c-1.733 0-3.144-1.367-3.209-3.082l.007-9.806zm-.052 82.666v-9.565c0-1.725 1.369-3.135 3.08-3.204l9.808.017c-6.796.604-12.21 5.983-12.888 12.752"/><path fill="#AC172B" d="M137.91 86.069h347.096v2.464h-347.096z"/><path fill="#8C8B90" d="M502.672 10.803c1.934 0 3.583.676 4.939 2.037 1.365 1.359 2.044 3.007 2.044 4.936 0 1.93-.679 3.573-2.046 4.934-1.365 1.357-3.008 2.04-4.938 2.04-1.921 0-3.564-.687-4.932-2.044-1.367-1.369-2.048-3.004-2.048-4.93 0-1.925.681-3.568 2.042-4.93 1.371-1.365 3.015-2.043 4.939-2.043m0 .977c-1.642 0-3.043.585-4.198 1.754-1.158 1.171-1.743 2.583-1.743 4.242 0 1.651.585 3.062 1.743 4.233 1.155 1.171 2.557 1.76 4.198 1.76 1.639 0 3.043-.589 4.208-1.76 1.157-1.172 1.735-2.582 1.735-4.233 0-1.659-.578-3.071-1.735-4.242-1.165-1.169-2.569-1.754-4.208-1.754m-3.115 10.022v-8.04h3.497c1.984 0 2.979.699 2.979 2.097 0 .961-.522 1.603-1.551 1.926.787.335 1.216.891 1.279 1.663l.103 1.063c.045.545.198.979.462 1.291h-2.674c-.174-.393-.253-.866-.253-1.431l-.03-1.189c0-.769-.348-1.154-1.032-1.154h-.323v3.774h-2.457zm2.457-4.586h.395c.854 0 1.285-.438 1.285-1.318s-.431-1.322-1.285-1.322h-.395v2.64z"/><g fill="#88878C"><path d="M147.717 96.898v.97h-6.368v4.428h5.469v.812h-5.469v5.169h6.368v.97h-7.973v-12.349h7.973zM152.815 109.246v-12.348h1.604v11.378h6.368v.97h-7.972zM174.512 96.898h4.419c.613 0 1.146.091 1.601.273.453.183.824.415 1.113.696.289.283.504.594.646.936.142.341.212.676.212 1.005 0 .377-.082.732-.247 1.067-.164.335-.385.629-.661.882s-.597.459-.962.618c-.364.158-.752.238-1.164.238v.07c.259.012.6.053 1.023.123.423.07.835.211 1.234.424.4.211.747.518 1.041.917s.441.935.441 1.604c0 .424-.074.844-.222 1.262s-.387.791-.718 1.12c-.33.329-.768.597-1.311.803s-1.21.309-2.001.309h-4.445v-12.347zm3.721 5.397c.353 0 .685-.059.996-.176s.588-.283.829-.494c.241-.212.43-.465.564-.759.136-.294.203-.611.203-.952 0-.271-.047-.541-.141-.813-.095-.27-.244-.511-.45-.723-.206-.211-.471-.382-.794-.512-.323-.129-.714-.193-1.173-.193h-2.152v4.621h2.118zm.45 6.174c.378 0 .734-.056 1.071-.168.336-.111.628-.279.876-.502.247-.224.445-.494.593-.812s.221-.683.221-1.094c0-.376-.067-.735-.203-1.076s-.342-.641-.619-.899-.629-.465-1.054-.617-.926-.229-1.504-.229h-1.947v5.397h2.566zM189.398 105.612l-1.552 3.634h-.812l5.222-12.348h.882l5.75 12.348h-1.711l-1.693-3.634h-6.086zm2.947-6.738h-.07l-2.54 5.944h5.38l-2.77-5.944zM214.747 96.898v12.56h-.088l-9.79-9.649h-.071v9.438h-.811v-12.56h.088l9.79 9.648h.07v-9.437h.812zM232.352 107.446c-.153.177-.377.383-.671.618s-.661.456-1.103.661c-.44.206-.958.379-1.552.521s-1.268.212-2.02.212c-1.188 0-2.212-.186-3.069-.556-.859-.37-1.564-.858-2.117-1.464s-.961-1.3-1.226-2.082c-.265-.781-.397-1.584-.397-2.408 0-.952.165-1.813.494-2.584.329-.77.794-1.429 1.394-1.976s1.32-.967 2.161-1.261c.84-.294 1.772-.441 2.796-.441.705 0 1.334.07 1.887.212s1.035.335 1.447.582c.411.247.755.541 1.031.882.276.342.503.712.68 1.111h-1.306c-.082-.247-.227-.49-.433-.732-.205-.24-.47-.455-.793-.644-.324-.188-.694-.341-1.111-.458-.418-.118-.88-.177-1.385-.177-.741 0-1.427.136-2.056.405-.629.271-1.173.646-1.631 1.129-.459.482-.814 1.057-1.067 1.721s-.38 1.396-.38 2.195c0 .753.121 1.477.362 2.17.24.694.597 1.306 1.066 1.834.471.529 1.059.953 1.765 1.271.705.317 1.517.477 2.434.477 1.646 0 3.069-.564 4.27-1.693l.53.475zM236.418 100.938c.252-.753.649-1.444 1.19-2.073s1.229-1.149 2.063-1.562c.835-.411 1.835-.617 2.999-.617 1.176 0 2.196.209 3.061.627.864.417 1.579.943 2.144 1.578s.981 1.326 1.252 2.072c.271.747.405 1.449.405 2.108 0 .435-.062.894-.185 1.376-.124.482-.306.961-.547 1.438s-.55.93-.926 1.358c-.377.429-.82.809-1.332 1.138s-1.088.591-1.729.785c-.642.193-1.355.291-2.144.291-1.164 0-2.164-.209-2.999-.627-.835-.417-1.522-.943-2.063-1.578s-.938-1.326-1.19-2.072c-.254-.747-.38-1.449-.38-2.108.001-.671.127-1.382.381-2.134zm1.728 4.4c.253.688.6 1.279 1.04 1.773.441.493.962.879 1.562 1.154.6.277 1.252.415 1.958.415.693 0 1.35-.138 1.967-.415.617-.275 1.158-.661 1.623-1.154.464-.494.832-1.086 1.103-1.773s.405-1.443.405-2.267-.135-1.579-.405-2.267-.639-1.279-1.103-1.773c-.465-.494-1.006-.879-1.623-1.154-.617-.277-1.273-.415-1.967-.415-.706 0-1.358.138-1.958.415-.6.275-1.12.66-1.562 1.154-.44.494-.787 1.086-1.04 1.773s-.38 1.443-.38 2.267.128 1.58.38 2.267zM263.345 106.124c.011.199.059.443.141.732.082.287.241.566.477.838.235.27.576.502 1.023.696.446.194 1.04.291 1.781.291.929 0 1.673-.177 2.231-.529s.838-.911.838-1.676c0-.611-.177-1.1-.529-1.464-.353-.365-.797-.674-1.332-.926-.535-.254-1.114-.479-1.737-.68-.623-.199-1.202-.441-1.737-.723-.535-.283-.979-.636-1.332-1.059-.353-.424-.529-.982-.529-1.676 0-.529.109-1 .327-1.412.218-.41.512-.752.883-1.022s.801-.476 1.29-.617c.488-.142 1.004-.212 1.546-.212.518 0 1.016.063 1.492.186s.904.306 1.281.547c.376.24.688.535.936.882.248.347.406.737.478 1.173h-1.202c-.094-.693-.409-1.202-.945-1.525-.536-.324-1.187-.485-1.952-.485-.46 0-.866.056-1.22.167-.353.112-.65.26-.893.441-.241.183-.424.396-.547.645-.124.246-.186.511-.186.793 0 .506.183.912.548 1.217.365.307.822.576 1.37.813.548.234 1.144.458 1.786.67.643.211 1.237.473 1.786.785.548.312 1.005.699 1.37 1.164s.548 1.061.548 1.79c0 .529-.105 1.012-.317 1.446-.213.436-.513.807-.902 1.111-.389.307-.856.541-1.405.706-.548.165-1.163.247-1.846.247-.672 0-1.291-.08-1.856-.238s-1.058-.383-1.476-.67c-.419-.289-.748-.639-.99-1.051-.241-.41-.374-.869-.397-1.375h1.198zM276.23 100.938c.252-.753.649-1.444 1.19-2.073s1.229-1.149 2.063-1.562c.835-.411 1.835-.617 2.999-.617 1.176 0 2.196.209 3.061.627.864.417 1.579.943 2.144 1.578s.981 1.326 1.252 2.072c.271.747.405 1.449.405 2.108 0 .435-.062.894-.185 1.376-.124.482-.306.961-.547 1.438s-.55.93-.926 1.358c-.377.429-.82.809-1.332 1.138s-1.088.591-1.729.785c-.642.193-1.355.291-2.144.291-1.164 0-2.164-.209-2.999-.627-.835-.417-1.522-.943-2.063-1.578s-.938-1.326-1.19-2.072c-.254-.747-.38-1.449-.38-2.108.002-.671.128-1.382.381-2.134zm1.729 4.4c.253.688.6 1.279 1.04 1.773.441.493.962.879 1.562 1.154.6.277 1.252.415 1.958.415.693 0 1.35-.138 1.967-.415.617-.275 1.158-.661 1.623-1.154.464-.494.832-1.086 1.103-1.773s.405-1.443.405-2.267-.135-1.579-.405-2.267-.639-1.279-1.103-1.773c-.465-.494-1.006-.879-1.623-1.154-.617-.277-1.273-.415-1.967-.415-.706 0-1.358.138-1.958.415-.6.275-1.12.66-1.562 1.154-.44.494-.787 1.086-1.04 1.773s-.38 1.443-.38 2.267.127 1.58.38 2.267zM305.715 107.446c-.153.177-.377.383-.671.618s-.661.456-1.103.661c-.44.206-.958.379-1.552.521s-1.268.212-2.02.212c-1.188 0-2.212-.186-3.069-.556-.859-.37-1.564-.858-2.117-1.464s-.961-1.3-1.226-2.082c-.265-.781-.397-1.584-.397-2.408 0-.952.165-1.813.494-2.584.329-.77.794-1.429 1.394-1.976s1.32-.967 2.161-1.261c.84-.294 1.772-.441 2.796-.441.705 0 1.334.07 1.887.212s1.035.335 1.447.582c.411.247.755.541 1.031.882.276.342.503.712.68 1.111h-1.306c-.082-.247-.227-.49-.433-.732-.205-.24-.47-.455-.793-.644-.324-.188-.694-.341-1.111-.458-.418-.118-.88-.177-1.385-.177-.741 0-1.427.136-2.056.405-.629.271-1.173.646-1.631 1.129-.459.482-.814 1.057-1.067 1.721s-.38 1.396-.38 2.195c0 .753.121 1.477.362 2.17.24.694.597 1.306 1.066 1.834.471.529 1.059.953 1.765 1.271.705.317 1.517.477 2.434.477 1.646 0 3.069-.564 4.27-1.693l.53.475zM312.947 96.898v12.348h-1.605v-12.348h1.605zM321.113 105.612l-1.552 3.634h-.812l5.222-12.348h.882l5.75 12.348h-1.711l-1.693-3.634h-6.086zm2.947-6.738h-.07l-2.54 5.944h5.38l-2.77-5.944zM335.702 109.246v-12.348h1.604v11.378h6.368v.97h-7.972zM357.575 109.246v-12.348h4.058c.976 0 1.869.155 2.681.468.812.311 1.509.74 2.091 1.287s1.034 1.197 1.358 1.949c.323.753.484 1.564.484 2.435 0 .905-.167 1.737-.502 2.495-.336.76-.794 1.415-1.376 1.967-.582.554-1.262.982-2.038 1.289-.775.305-1.604.458-2.487.458h-4.269zm1.606-.777h1.936c.962 0 1.78-.161 2.455-.484.675-.324 1.229-.744 1.663-1.262.434-.518.75-1.097.95-1.737.199-.642.299-1.279.299-1.914 0-.706-.117-1.385-.352-2.038-.235-.652-.578-1.229-1.029-1.729-.452-.5-1.013-.896-1.681-1.19-.669-.294-1.438-.44-2.306-.44h-1.936v10.794zM381.318 96.898v.97h-6.368v4.428h5.469v.812h-5.469v5.169h6.368v.97h-7.973v-12.349h7.973zM401.903 107.499h.07l5.716-10.601h1.217v12.348h-1.605v-10.002h-.07l-5.574 10.214h-.317l-5.45-10.284h-.071v10.072h-.775v-12.348h1.199l5.66 10.601zM423.564 96.898v.97h-6.368v4.428h5.469v.812h-5.469v5.169h6.368v.97h-7.973v-12.349h7.973zM432.825 101.749h.089l3.722-4.851h.935l-4.216 5.521 5.345 6.827h-1.993l-4.304-5.521h-.07l-4.216 5.521h-.953l4.728-6.156-4.815-6.191h1.976l3.772 4.85zM446.108 96.898v12.348h-1.605v-12.348h1.605zM464.418 107.446c-.153.177-.377.383-.671.618s-.661.456-1.103.661c-.44.206-.958.379-1.552.521s-1.268.212-2.02.212c-1.188 0-2.212-.186-3.069-.556-.859-.37-1.564-.858-2.117-1.464s-.961-1.3-1.226-2.082c-.265-.781-.397-1.584-.397-2.408 0-.952.165-1.813.494-2.584.329-.77.794-1.429 1.394-1.976s1.32-.967 2.161-1.261c.84-.294 1.772-.441 2.796-.441.705 0 1.334.07 1.887.212s1.035.335 1.447.582c.411.247.755.541 1.031.882.276.342.503.712.68 1.111h-1.306c-.082-.247-.227-.49-.433-.732-.205-.24-.47-.455-.793-.644-.324-.188-.694-.341-1.111-.458-.418-.118-.88-.177-1.385-.177-.741 0-1.427.136-2.056.405-.629.271-1.173.646-1.631 1.129-.459.482-.814 1.057-1.067 1.721s-.38 1.396-.38 2.195c0 .753.121 1.477.362 2.17.24.694.597 1.306 1.066 1.834.471.529 1.059.953 1.765 1.271.705.317 1.517.477 2.434.477 1.646 0 3.069-.564 4.27-1.693l.53.475zM468.484 100.938c.252-.753.649-1.444 1.19-2.073s1.229-1.149 2.063-1.562c.835-.411 1.835-.617 2.999-.617 1.176 0 2.196.209 3.061.627.864.417 1.579.943 2.144 1.578s.981 1.326 1.252 2.072c.271.747.405 1.449.405 2.108 0 .435-.062.894-.185 1.376-.124.482-.306.961-.547 1.438s-.55.93-.926 1.358c-.377.429-.82.809-1.332 1.138s-1.088.591-1.729.785c-.642.193-1.355.291-2.144.291-1.164 0-2.164-.209-2.999-.627-.835-.417-1.522-.943-2.063-1.578s-.938-1.326-1.19-2.072c-.254-.747-.38-1.449-.38-2.108.001-.671.127-1.382.381-2.134zm1.729 4.4c.253.688.6 1.279 1.04 1.773.441.493.962.879 1.562 1.154.6.277 1.252.415 1.958.415.693 0 1.35-.138 1.967-.415.617-.275 1.158-.661 1.623-1.154.464-.494.832-1.086 1.103-1.773s.405-1.443.405-2.267-.135-1.579-.405-2.267-.639-1.279-1.103-1.773c-.465-.494-1.006-.879-1.623-1.154-.617-.277-1.273-.415-1.967-.415-.706 0-1.358.138-1.958.415-.6.275-1.12.66-1.562 1.154-.44.494-.787 1.086-1.04 1.773s-.38 1.443-.38 2.267.127 1.58.38 2.267zM417.578 95.426h.688l2.734-2.24h-1.958z"/></g></svg>